:FULLY-SPECIFIED
:DEGREES
71
root -4.381569862365723 17.36930274963379 7.935969829559326 90.00000933466734 -0.0 -0.0
lhipjoint -5.528973971617621e-07 -1.7075472925031877e-06 5.635377011264426e-07
lfemur 13.680228577300852 22.08225259610322 -1.6332437989567345
ltibia 30.08403265218472 -13.830547380554492 8.580582239179428
lfoot 4.619738464016109 14.917155345422652 -1.0740190724541787
ltoes -8.564111237995943 3.5733009760909114 2.8874366449700912
rhipjoint -1.4590168159163821e-06 -1.2806604693773908e-06 -1.1362305144035093e-07
rfemur -16.75098942058479 -26.01357287857916 11.428917118368254
rtibia 19.367981523717052 8.349930166002682 -6.31906605074001
rfoot -2.3621210329322984 1.1874450357928186 -0.8455592231967428
rtoes -3.362336709753316 -1.3429656684296587 -1.1897550271144581
lowerback 5.954899147215148 3.4619537381374825 -1.6091655678634413
upperback 0.28575059556143023 -2.042091452154293 -2.3234807318068325
thorax -2.879462612557513 -4.256976871912977 -1.1026893251038363
lowerneck -16.62868634575925 10.607207795175286 -3.3264331800509095
upperneck 23.017713597280874 -4.7669631915757344 -3.0739970722900543
head 10.255570019909166 -3.044509011208994 -1.8383046474173235
lclavicle -1.1905593500282093e-07 5.336085289072462e-08 1.7916324053945998e-07
lhumerus -82.2202667756719 -25.5483669866623 -10.47418046957918
lradius -2.825291812431532e-07 -9.12678638507546e-07 33.34281152784619
lwrist -4.94604089182149e-07 -6.7956822005522 6.777882632832276e-07
lhand -22.291777186629826 -7.833989628930968 -18.390806849730836
lfingers -9.414104972780149e-07 5.958838404591767e-07 7.125023250159637
lthumb -44.166059060242624 -33.777857011935566 20.848522356512987
rclavicle -2.343282567121354e-08 -1.5207843073856516e-06 -8.563986979746117e-08
rhumerus -69.60970900164487 30.933452052840433 33.49584191620032
rradius -3.9477062517431385e-07 1.0794703864469864e-06 -24.88930154308026
rwrist -5.519988014087176e-07 11.47560402266623 4.740383681674314e-07
rhand 12.53888347642421 -2.8758312997965936 12.712290026619787
rfingers -4.6239122781278693e-07 1.3831930793101032e-07 -7.125021115725521
rthumb -8.018939198823865 16.572127256789667 -11.781418912564382
72
root -4.919360637664795 17.441600799560547 8.330920219421387 90.00000933466734 -0.0 -0.0
lhipjoint -5.528973971617621e-07 -1.7075472925031877e-06 5.635377011264426e-07
lfemur 8.763529709871866 21.982694051213823 -2.3987603020743626
ltibia 36.94879282468149 -17.503944352045117 9.47976895944879
lfoot 16.711399936608103 14.071304718608271 -6.825455848917932
ltoes -5.302900814989955 2.154024165385639 1.8441713530275412
rhipjoint -1.4590168159163821e-06 -1.2806604693773908e-06 -1.1362305144035093e-07
rfemur -13.632163682337826 -26.64952154691529 9.896197909181652
rtibia 19.93964786667961 8.630497261633883 -6.464399242786365
rfoot -2.1187304435100676 -0.16096857561378466 -0.7559248364496672
rtoes 2.0559381665926133 0.7807441430679068 0.7604942330044058
lowerback 6.319338404533164 3.134300172141862 -1.2491294346825559
upperback 0.2725687840305552 -2.049828348936625 -1.8303504652420204
thorax -3.142890629127034 -4.05145050337177 -0.8552281030188363
lowerneck -16.593273522460024 10.485587739266746 -3.6825353377132792
upperneck 23.047827901331463 -4.991390827984483 -3.6731818205317697
head 10.290104310126397 -3.023763378822138 -2.0767156020477917
lclavicle -1.1905593500282093e-07 5.336085289072462e-08 1.7916324053945998e-07
lhumerus -82.69718473446804 -26.76955699893639 -9.799903340941874
lradius -6.614433673307491e-07 -6.906364828633425e-07 32.25042180784561
lwrist -7.439747919824849e-07 -9.995691567273935 1.0038125730173299e-06
lhand -21.672943264806452 -8.255287649768402 -19.865140748118524
lfingers -9.414104972780149e-07 5.958838404591767e-07 7.125023250159637
lthumb -43.62140953054205 -33.79744599447516 19.10149998570171
rclavicle -2.343282567121354e-08 -1.5207843073856516e-06 -8.563986979746117e-08
rhumerus -70.5480677105779 32.39183062932697 31.389131538412418
rradius 6.112672420092301e-07 2.228747078153985e-06 -26.219306714116406
rwrist -3.917631944452718e-07 8.014448349444582 3.503165212802473e-07
rhand 11.87283928705771 -2.839811443434885 13.26013949994651
rfingers -4.6239122781278693e-07 1.3831930793101032e-07 -7.125021115725521
rthumb -8.755704020630324 16.7513736187256 -11.543710400201366
73
root -5.416689872741699 17.521299362182617 8.688920021057129 90.00000933466734 -0.0 -0.0
lhipjoint -5.528973971617621e-07 -1.7075472925031877e-06 5.635377011264426e-07
lfemur 1.5478596041424053 20.278160579681902 -4.458195952408845
ltibia 44.957517475601605 -21.81611939773555 9.94702305434301
lfoot 25.372001257008815 13.525528207694647 -11.621919481292597
ltoes 7.2309633261679425 -2.6041253073964286 -2.776411920011534
rhipjoint -1.4590168159163821e-06 -1.2806604693773908e-06 -1.1362305144035093e-07
rfemur -8.859831108300815 -29.02311985897415 7.932382772793233
rtibia 18.003055303001922 7.686583047584691 -5.961448871742367
rfoot -1.326796903116946 -0.549437865834721 -0.477787313811436
rtoes 5.189123096909059 1.9093915487515236 1.9644018923268063
lowerback 6.871288552682834 1.3255954301532584 -1.235980466756635
upperback 0.2497433857218568 -3.0695837028691684 -1.6577846686445905
thorax -3.519432127880667 -4.095201706987109 -0.7865239238487657
lowerneck -17.08999049211274 10.83773265607874 -3.8930268268942627
upperneck 23.133570681077217 -4.996952736402989 -3.8101070497098384
head 10.428193659671129 -3.063194274344033 -2.163837012788832
lclavicle -1.1905593500282093e-07 5.336085289072462e-08 1.7916324053945998e-07
lhumerus -83.85380213832883 -27.740150785657296 -9.191009905681808
lradius -4.703084680813855e-07 -1.6482514736879773e-06 32.03512399992305
lwrist -6.489978823066198e-07 -8.795874924460108 8.808326859262376e-07
lhand -21.814374284402614 -8.086453057448502 -19.363364315838123
lfingers -9.414104972780149e-07 5.958838404591767e-07 7.125023250159637
lthumb -43.726512481490204 -33.760539067295 19.660769535320696
rclavicle -2.343282567121354e-08 -1.5207843073856516e-06 -8.563986979746117e-08
rhumerus -70.72146572303701 32.13964979988634 29.819632614318945
rradius 5.823489264011151e-07 2.2328336583642288e-06 -26.668895378496035
rwrist -4.0449884783410034e-07 8.28618059538437 3.6060373278641035e-07
rhand 12.997955004692754 -2.8695114538236277 12.236547714134534
rfingers -4.6239122781278693e-07 1.3831930793101032e-07 -7.125021115725521
rthumb -7.481521985680691 16.49173251516403 -12.0221899109965
74
root -5.8891401290893555 17.578500747680664 9.048489570617676 90.00000933466734 -0.0 -0.0
lhipjoint -5.528973971617621e-07 -1.7075472925031877e-06 5.635377011264426e-07
lfemur -4.641598484454735 20.802222211676764 -5.196451889888483
ltibia 52.31987400460673 -25.693662185781395 9.809630384093618
lfoot 24.291789764298375 12.868149820837601 -10.995190714562336
ltoes 6.7174287232313645 -2.432468566288845 -2.570231560857298
rhipjoint -1.4590168159163821e-06 -1.2806604693773908e-06 -1.1362305144035093e-07
rfemur -5.1702602488556 -29.26476853671462 6.795899912831994
rtibia 16.99058733402696 7.2007294938068815 -5.686663531243584
rfoot -2.261838487990879 -0.996839749102033 -0.808527271538256
rtoes 6.411025583290946 2.329059502254852 2.447831369279496
lowerback 7.196263403863339 1.200855898784727 -0.9872748162213706
upperback 0.3469437544394554 -3.1755720170884874 -1.3153150349570373
thorax -3.6195033638446397 -4.109309889604594 -0.6180820674061425
lowerneck -17.11539367318331 10.083406564142532 -3.541361517428051
upperneck 23.18053164671564 -4.703919264876047 -3.453282172655917
head 10.416423536183904 -2.881460442889742 -1.9690658443128672
lclavicle -1.1905593500282093e-07 5.336085289072462e-08 1.7916324053945998e-07
lhumerus -84.03002101891516 -27.915823251110023 -9.486904799584162
lradius -1.0399608746384728e-06 -4.736150745059848e-07 31.127019613918595
lwrist -5.986655790280221e-07 -8.150530477146978 8.150709266657991e-07
lhand -23.06159244005633 -7.390274927237551 -16.810789434315545
lfingers -9.414104972780149e-07 5.958838404591767e-07 7.125023250159637
lthumb -44.87514197911666 -33.77313052102991 22.784795608846977
rclavicle -2.343282567121354e-08 -1.5207843073856516e-06 -8.563986979746117e-08
rhumerus -71.82842082144265 31.189905165606902 28.026924815696745
rradius 5.973473536125241e-07 2.2307288944982236e-06 -26.435497569272943
rwrist -4.0478364742249733e-07 8.292273124124021 3.608329617234128e-07
rhand 13.821884139365977 -3.0646559348264155 12.259959895062046
rfingers -4.6239122781278693e-07 1.3831930793101032e-07 -7.125021115725521
rthumb -6.765773655950361 16.005472565130606 -11.764643114189184
75
root -6.332499980926514 17.621902465820312 9.415510177612305 90.00000933466734 -0.0 -0.0
lhipjoint -5.528973971617621e-07 -1.7075472925031877e-06 5.635377011264426e-07
lfemur -10.457310756102894 20.914428559361735 -5.738167426453711
ltibia 58.506813034060606 -28.814351711898126 9.276763784484965
lfoot 15.902597963399165 9.620047384622513 -6.577999375948839
ltoes -1.7706055199114494 0.6971670135367218 0.635124509963235
rhipjoint -1.4590168159163821e-06 -1.2806604693773908e-06 -1.1362305144035093e-07
rfemur -0.6274594902497469 -29.55872963330821 5.02584272904485
rtibia 15.131194690990633 6.322929376489299 -5.161405335483501
rfoot -2.8631190370907302 -1.997207077466966 -1.0253777735582272
rtoes 5.715543705488513 2.091618647929937 2.1717459449608834
lowerback 7.541958060777902 0.11097143747683927 -0.5735047844272013
upperback 0.5438112307016585 -3.193601795506617 -0.6773226993160432
thorax -3.6488501253872454 -3.448316838572729 -0.3222855175556664
lowerneck -16.90961544141646 9.986446052458676 -3.7551398217036915
upperneck 22.91772133537918 -5.102933366659491 -3.8988359027833583
head 10.303956787536828 -2.9456228130660183 -2.113404176617927
lclavicle -1.1905593500282093e-07 5.336085289072462e-08 1.7916324053945998e-07
lhumerus -83.88484534810654 -28.31768084602231 -10.497462023138814
lradius -3.9783138744425476e-07 -3.282501585890528e-06 29.995912966607804
lwrist -7.378947418756494e-07 -9.9195904533153 9.959828107246902e-07
lhand -22.934096713914286 -7.149135098590252 -16.390275177685368
lfingers -9.414104972780149e-07 5.958838404591767e-07 7.125023250159637
lthumb -44.67542724778549 -33.62898620878597 23.129954095911696
rclavicle -2.343282567121354e-08 -1.5207843073856516e-06 -8.563986979746117e-08
rhumerus -72.37247270959084 29.23496159117668 28.81327595710385
rradius -8.428198668175084e-07 2.7851234932485193e-06 -25.868398915317833
rwrist -5.063871028327857e-07 10.481497309727555 4.40111162380323e-07
rhand 14.843882783554047 -3.1702596240180982 11.78661668652276
rfingers -4.6239122781278693e-07 1.3831930793101032e-07 -7.125021115725521
rthumb -5.735498530035529 15.606469989291385 -11.843914289696352
